<?xml version="1.0" standalone="yes"?>
<svg xmlns="http://www.w3.org/2000/svg" width="1014" height="564">
<path style="fill:#ffffff; stroke:none;" d="M0 0L0 355C1.70775 351.475 2.31595 347.539 4.13117 344C13.869 325.015 27.8413 307.86 40.7647 291C47.2561 282.531 52.9264 273.452 59.4282 265C73.4657 246.751 88.5149 229.313 102.503 211C116.368 192.848 131.206 176.164 142.306 156C152.371 137.714 171.67 113.366 163.893 91C161.789 84.9498 157.336 80.8218 153.374 76.0046C149.256 70.9975 144.632 67.601 139 64.3341C132.336 60.4684 125.442 56.9177 118 54.7816C90.1868 46.7983 55.2238 58.5381 38.9552 83C34.2465 90.0801 32.8097 97.9289 30.7608 106C29.3528 111.546 23.6886 120.348 17.3904 114.566C9.49144 107.314 6.19534 91.1655 5.05015 81C4.40668 75.288 3.54323 69.7474 4.43904 64C10.7077 23.7812 47.3758 1 86 1C78.6006 -2.10498 67.0073 0 59 0L0 0z"/>
<path style="fill:#060606; stroke:none;" d="M125 344C117.602 344 110.351 343.195 103 343.015C94.7681 342.813 86.9809 343.441 79 340.975C70.5832 338.373 60.7451 335.657 66.3279 325C67.2452 323.249 68.3337 321.601 69.4892 320C81.5044 303.353 91.727 286.091 104.6 270C113.074 259.408 122.923 249.751 131.101 239C139.873 227.468 147.484 215.048 155.515 203C171.122 179.588 186.029 156.184 196.604 130C203.458 113.029 209.705 90.476 205.471 72C201.202 53.3734 187.372 37.3325 173 25.5756C166.439 20.2082 159.423 17.2782 152 13.3704C147.402 10.9501 143.076 7.927 138 6.53937C127.257 3.60284 115.074 2.72302 104 1.91125C84.6307 0.491394 65.292 0.132263 47 8.3125C14.196 22.9826 -1.53018 56.4022 6.65432 91C8.40858 98.4157 11.0618 106.521 15.3519 112.891C19.7958 119.49 27.2298 116.463 29.8557 109.999C32.931 102.43 33.1315 94.3289 37.1829 87C46.8334 69.5422 70.1911 54.9019 90 53.0093C113.882 50.7274 138.609 59.662 154.205 78C158.691 83.2742 163.248 87.9714 164.707 95C166.484 103.563 163.954 112.108 160.8 120C150.123 146.717 133.14 172.021 115.641 194.715C111.542 200.031 106.59 204.649 102.503 210C88.5149 228.313 73.4657 245.751 59.4282 264C52.6682 272.788 46.8103 282.251 39.9861 291C30.8429 302.723 22.4245 314.485 14.456 327C5.31137 341.362 -3.61812 354.132 1.80015 372C5.2902 383.509 15.1466 388.862 26 391.349C41.7806 394.965 57.9241 394 74 394C81.0864 394 93.493 396.36 99.7755 392.682C103.715 390.376 105.215 383.893 107.108 380C112.692 368.518 122.748 356.632 125 344z"/>
<path style="fill:#ffffff; stroke:none;" d="M91 0C96.0858 2.13892 102.532 1.6402 108 2.16974C117.408 3.08081 127.881 4.04681 137 6.53937C142.441 8.02661 147.026 11.3807 152 13.8804C175.253 25.5652 200.846 46.4724 205.671 74C209.969 98.5173 199.492 124.686 188.809 146C172.698 178.143 152.896 209.348 131.101 238C124.427 246.774 116.129 254.259 109.35 263C103.082 271.081 96.0675 278.621 90.2022 287C84.3428 295.371 79.7866 304.611 73.9606 313C70.2222 318.383 61.7471 326.55 64.6073 333.942C66.4262 338.643 73.7332 339.656 78 340.975C85.9809 343.441 93.7681 342.813 102 343.015C109.682 343.203 117.269 344 125 344C121.422 356.42 112.752 367.395 107.108 379C104.992 383.351 103.408 390.222 98.892 392.682C91.9013 396.49 78.7857 394 71 394C47.0057 394 1.2938 398.024 1 363C-1.29215 368.462 0 376.113 0 382L0 423L0 564L296 564C291.634 561.902 286.573 562.067 282 560.452C273.034 557.287 263.277 551.763 256 545.675C232.431 525.958 223.188 499.38 218.561 470C216.409 456.333 214.008 442.899 214.008 429C214.008 417.007 216 405.07 216 393L245 393L245 339L223 339C224.298 322.692 229.333 306.826 233.101 291C238.943 266.464 244.002 241.482 253.554 218C257.305 208.779 259.938 200.045 266.004 192.001C268.635 188.512 272.081 183.99 277 184.337C278.369 184.434 279.844 184.926 280.956 185.743C289.289 191.864 282.733 198.5 280.764 206C280.152 208.33 279.138 213.237 282.314 214.263C286.137 215.498 289.791 210.404 291.62 207.826C297.817 199.093 304.727 189.359 313.004 182.464C323.76 173.502 337.7 167.083 352 167.079C365.621 167.074 377.101 174.047 388 181.333C393.944 185.307 400.023 189.506 404.675 195.004C424.035 217.88 428.08 249.326 430.09 278C432.889 317.944 429.359 360.074 419.625 399C416.992 409.53 412.971 419.693 409.611 430C403.276 449.437 397.065 468.433 388.36 487C384.815 494.559 379.913 501.016 375.435 508C358.581 534.285 334.516 563 301 563C306.707 565.395 314.846 564 321 564L362 564L508 564L1014 564L1014 372C1009.94 373.131 1007.71 376.292 1004.56 378.965C999.915 382.918 995.217 386.82 990 390C989.626 387.043 988.374 383.287 989.182 380.343C989.927 377.63 993.09 377.132 994.258 374.701C995.713 371.672 995 367.272 995 364C981.046 365.554 974.149 384.11 961 389C957.987 380.734 960.636 374.362 961 366C954.263 368.352 950.186 378.391 943.04 379.093C936.783 379.709 936.76 368.762 929.039 371.862C921.384 374.935 918.785 385.165 910 386C911.994 379.765 913.863 373.584 914 367C905.719 368.28 897.636 385.659 889.85 375.025C888.958 373.808 888.542 372.38 888 371C881.411 372.332 874.065 379.598 869 384C866.996 381.317 866.226 379.343 866 376C859.351 377.866 855.086 387.646 848.482 388.269C845.881 388.515 844.871 384.941 844.497 382.996C843.443 377.509 845.763 371.53 846 366C838.754 369.759 834.758 377.106 827.985 381.438C825.581 382.975 821.973 384.912 819.004 384.247C813.897 383.103 813.373 374.996 808.775 374.542C802.166 373.891 798.245 383.416 791.896 376.942C791.098 376.128 790.572 374.937 790 374C783.232 375.901 776.182 390.319 770.318 379.991C769.812 379.099 769.554 378.017 769.344 377.025C768.995 375.373 769.036 373.676 769 372C760.089 374.5 752.425 384.486 745 390C743.687 384.257 741.315 378.226 749 377C749.017 374.98 749.076 373.006 749.281 370.996C750.768 356.397 735.944 372.432 732 375.695C730.573 376.876 728.896 378.397 727.004 378.744C721.305 379.788 720.169 370.6 714.011 371.336C705.628 372.339 702.134 383.717 694 386C695.091 379.558 696.945 373.626 697 367C691.084 367.928 688.088 373.246 683 376C688.725 367.888 696.7 359.5 705 354C706.308 361.158 703.151 366.906 703 374C708.484 372.136 712.412 364.944 717.995 364.327C724.331 363.627 723.096 372.727 728.214 373.573C731.087 374.048 733.847 371.869 735.91 370.181C741.74 365.41 749.363 358.577 753 352L755 352C758.643 361.508 754.081 369.343 754 379C765.926 374.289 769.368 359.78 780 354C778.013 359.873 772.662 370.469 775.746 376.681C777.257 379.726 780.45 378.389 782.424 376.681C786.677 373.003 790.076 368.246 792 363L794 363C795.754 369.762 797.539 377.967 805.941 372.056C807.139 371.214 808.242 370.091 808.987 368.826C811.69 364.236 811.71 357.139 813.155 352C816.509 340.068 822.394 327.989 832 320C834.687 331.917 829.657 343.608 823.701 354C820.659 359.307 814.087 365.379 815.41 371.999C817.243 381.177 825.978 380.461 831.911 375.84C840.226 369.364 849.926 356.707 851 346C845.42 345.996 840.442 345.123 835 344L835 342C840.654 340.654 848.484 342.816 853.606 340.397C856.575 338.994 858.546 334.299 861 332C860.346 337.205 860.2 340.387 863 345C851.503 349.676 851.001 370.036 851 381C857.046 380.541 860.621 376.093 865 372.282C874.163 364.307 883.828 352.077 896 349L896 353C892.014 353.169 890.04 355.177 887.004 357.681C881.105 362.546 874.167 368.011 873 376C881.695 374.836 892.435 364.616 894 356C895.242 360.876 891.854 369.807 896.433 373.342C898.517 374.951 900.775 373.868 902.576 372.423C907.975 368.091 911.244 361.278 916.996 357.377C923.926 352.676 922.033 362.618 920.811 366C919.716 369.03 919.147 371.791 919 375C925.585 373.611 928.518 364.622 935.074 364.02C941.357 363.443 940.166 373.914 946.104 373.573C953.32 373.159 959.054 361.414 962.282 355.985C963.529 353.887 966.495 350.177 964.867 347.603C963.593 345.589 960.016 345.969 958 345.468C954.82 344.677 952.503 343.019 950 341C955.576 340.346 963.845 342.536 968.896 339.937C971.594 338.548 973.259 335.359 975 333C975.213 336.255 976.456 340.752 975.945 343.856C975.48 346.685 971.958 348.248 970.904 351.058C967.422 360.336 965.777 371.16 965 381C974.892 380.672 984.41 367.586 991 361C993.127 358.874 996.335 354.25 999.517 353.77C1005.06 352.933 1002.23 364.636 1001.62 367C1000.58 371.066 999.216 374.78 999 379C1003.75 377.512 1011.19 373.35 1013.4 368.586C1016.15 362.643 1014 351.502 1014 345L1014 288L1014 0L91 0z"/>
<path style="fill:#d77f62; stroke:none;" d="M6 90L7 91L6 90M143 153L144 154L143 153z"/>
<path style="fill:#060606; stroke:none;" d="M223 339L245 339L245 393L216 393C216 404.093 214.307 414.974 214.12 426C213.859 441.285 216.149 455.982 218.562 471C221.114 486.885 224.54 503.519 231.981 518C250.959 554.929 299.144 577.445 336 552.895C352.81 541.698 365.621 523.45 376.745 507C390.99 485.936 399.026 462.931 407 439C411.087 426.735 415.817 414.505 419.116 402C426.033 375.782 429.776 347.054 430.961 320C432.17 292.393 430.864 263.927 424.651 237C421.133 221.753 414.586 204.74 403.816 193.039C399.285 188.117 393.526 184.359 388 180.667C375.562 172.356 361.526 164.891 346 167.615C326.556 171.027 314.526 179.183 301.711 194C297.21 199.205 293.628 205.299 289.025 210.33C287.609 211.878 285.452 214.091 283.133 213.883C278.911 213.505 280.542 207.422 281.387 205C283.85 197.942 289.806 189.212 279.985 184.743C278.797 184.203 277.285 184.09 276 184.153C270.968 184.4 268.042 188.287 265.27 192.001C259.345 199.938 256.896 208.953 253.14 218C243.585 241.009 238.84 265.897 233.101 290C229.287 306.017 223.713 322.43 223 339z"/>
<path style="fill:#ffffff; stroke:none;" d="M319 226.468C310.485 228.116 302.07 235.747 296.425 241.961C284.939 254.606 277.66 268.094 274.015 285C266.652 319.148 265.265 354.204 266.129 389C266.245 393.691 267.59 398.32 267.91 403C269.075 419.982 270.267 436.996 271.039 454C271.209 457.747 272.292 461.311 272.867 465C276.124 485.924 285.627 518.471 313 513.671C320.987 512.271 327.439 506.491 333 500.996C344.635 489.501 352.353 477.67 359.32 463C365.83 449.293 372.64 435.364 377.655 421C380.156 413.838 381.218 406.268 383.435 399C394.037 364.252 400.364 326.836 391.221 291C387.416 276.089 383.824 259.536 374.39 247.004C369.816 240.928 363.647 237.473 357 234.194C344.838 228.195 332.84 223.79 319 226.468z"/>
<path style="fill:#cd3301; stroke:none;" d="M831 320C821.912 327.738 816.357 339.612 813.155 351C811.69 356.21 811.648 363.211 808.987 367.91C808.239 369.231 807.149 370.397 805.941 371.312C797.849 377.437 796.214 369.484 794 363L792 363C789.456 367.754 786.33 372.09 782.424 375.847C780.354 377.84 777.249 379.446 775.782 375.847C773.152 369.398 778.535 360.183 780 354C774.927 355.807 772.935 359.933 769.714 363.999C765.104 369.819 760.047 376.232 753 379C755.623 370.721 759.262 360.191 755 352L753 352C748.239 357.801 742.442 363.609 736.826 368.6C734.805 370.395 732.007 373.191 729.105 373.249C724.401 373.343 724.566 366.058 720.856 364.273C714.827 361.373 707.089 371.67 703 375C703.159 367.558 706.78 361.496 705 354C696.946 357.599 686.706 368.073 683 376C688.499 374.018 691.362 368.6 697 367C696.865 373.561 694.641 379.565 694 386C702.911 384.625 705.484 372.835 714.011 371.658C720.339 370.785 721.296 381.325 728.001 379.003C729.457 378.499 730.818 377.477 732 376.517C735.803 373.429 749.89 357.116 749.15 370.996C749.044 373.001 749.006 374.992 749 377C741.055 377.619 743.177 384.249 745 390C753.93 385.43 759.953 376.213 769 372C769.017 373.991 768.933 376.043 769.344 378.005C769.552 378.999 769.804 380.09 770.318 380.98C776.1 390.985 783.988 376.806 790 374C794.404 384.775 803.146 377.196 810 373C811.048 375.697 812.008 378.601 813.699 380.98C821.824 392.408 834.971 375.668 840.975 370.115C842.579 368.632 844.265 367.322 846 366C845.56 371.568 843.462 377.409 844.309 382.996C844.633 385.134 845.429 388.549 848.144 388.669C854.369 388.944 860.533 378.549 866 376C866.092 379.089 866.572 381.258 868 384C875.497 380.769 880.501 373.502 888 371C888.357 372.365 888.577 373.788 889.317 375.025C896.486 387.008 906.383 369.139 914 367C913.714 373.561 911.456 379.65 910 386C919.363 386.784 921.88 374.561 930.011 371.916C936.322 369.862 936.761 378.954 942.093 379.535C948.749 380.26 956.339 368.926 961 365C960.636 373.355 957.124 380.945 961 389C975.282 385.388 980.936 366.838 995 364C995 367.338 995.662 371.734 993.822 374.701C992.486 376.855 989.717 377.528 989.028 380.144C988.232 383.164 989.443 387.012 990 390C998.024 386.8 1009.68 377.529 1014 370C1008.22 371.578 1004.48 376.532 999 379C999.381 375.179 1000.67 371.708 1001.62 368C1002.38 365.013 1005.37 350.363 997.981 353.832C994.889 355.283 992.372 358.63 990 361C985.553 365.444 981.071 369.849 976.49 374.155C972.863 377.564 970.118 380.607 965 381C966.149 371.918 967.635 362.778 970.295 354.001C971.472 350.115 975.245 348.052 976.272 344.701C977.171 341.768 975.379 336.135 975 333C972.734 335.168 970.909 338.514 967.957 339.806C962.743 342.089 955.562 339.684 950 341C952.278 343.608 954.532 344.983 958 345.675C960.088 346.092 963.673 345.827 964.578 348.318C965.406 350.599 963.345 353.163 962.281 354.996C959.29 360.147 955.928 365.565 951.7 369.811C950.107 371.411 947.699 373.595 945.214 373.118C940.139 372.143 941.435 362.918 935.074 363.567C928.519 364.236 925.046 372.852 919 375C919.401 370.432 925.23 360.556 921.968 356.623C919.651 353.828 915.773 357.407 914.039 359.059C909.747 363.149 906.568 368.902 901.715 372.369C897.839 375.138 894.988 371.937 894.489 367.999C894.325 366.705 894.607 365.293 894.695 364C894.877 361.333 894.967 358.672 895 356C889.715 363.802 882.763 373.679 873 376C875.048 368.123 881.959 362.645 887.997 357.684C890.657 355.498 892.53 353.404 896 353L896 349C883.45 350.959 873.138 364.319 864 372.282C859.922 375.836 856.535 380.156 851 381C851.008 369.409 852.154 351.186 863 345C860.915 340.268 860.614 337.108 861 332C857.726 334.177 856.27 338.882 852.786 340.397C847.532 342.681 840.596 340.346 835 342L835 344C840.417 345.522 845.388 345.999 851 346C849.155 356.674 839.488 369.393 830.961 375.84C825.127 380.251 816.587 380.048 815.503 371C814.936 366.271 819.499 361.722 821.846 358C827.328 349.306 838.714 329.646 831 320z"/>
<path style="fill:#d77f62; stroke:none;" d="M267 323L268 324L267 323z"/>
<path style="fill:#cd3301; stroke:none;" d="M547 394C552.94 389.539 552.098 379.185 556.089 373.189C560.33 366.816 573.946 365.303 581 365L581 388C584.758 385.346 584.769 379.367 584.961 375C585.42 364.521 586.262 354.569 585.985 344C585.847 338.703 584.861 333.008 579 332C578.782 330.724 578.57 329.503 578.267 328.245C577.028 323.101 574.56 323.249 570.888 326.774C566.904 330.599 565.089 336.073 562.782 341C559.779 347.412 558.681 354.715 555.443 360.981C553.895 363.977 550.22 365.895 549.292 369.129C548.441 372.094 550.411 374.987 550.191 378C549.794 383.458 547.253 388.465 547 394M483 388L483 383C476.279 385.236 470.162 386.941 463 387C462.033 375.408 465.082 364.226 467.576 353C469.499 344.339 470.741 335.54 473 327C463.833 326.649 462.996 340.311 461.41 347C458.978 357.254 459.079 368.475 457.572 379C457.096 382.322 454.77 388.265 457.607 390.991C463.419 396.575 476.768 389.963 483 388z"/>
<path style="fill:#d77f62; stroke:none;" d="M525.667 326.333C525.222 326.778 526.278 326.722 526.333 326.667C526.778 326.222 525.722 326.278 525.667 326.333z"/>
<path style="fill:#cd3301; stroke:none;" d="M531 386C526.194 387.102 520.968 389.616 516 388.181C509.449 386.29 505.837 380.195 504.159 374C500.837 361.739 504.331 347.869 512.609 338.29C516.431 333.867 528.801 327.557 532.954 335.148C534.751 338.434 532.25 341.956 531.114 345C529.02 350.613 527.952 356.094 529 362C537.263 359.514 539.675 343.58 538.71 336C538.029 330.654 536.032 326.356 529.999 326.195C522.667 326 516.128 330.318 511.001 335.09C499.026 346.237 490.394 367.328 499.367 382.999C505.553 393.802 523.255 396.943 531 386z"/>
<path style="fill:#ffffff; stroke:none;" d="M827 335C821.844 342.22 818.004 350.342 816 359C821.637 354.647 829.191 342.409 827 335z"/>
<path style="fill:#cd3301; stroke:none;" d="M326 336.688C296.58 339.474 290.427 382.144 319.015 391.617C322.101 392.639 325.732 393.591 329 393.363C358.685 391.284 364.75 345.583 335 337.974C332.149 337.245 328.955 336.408 326 336.688z"/>
<path style="fill:#d77f62; stroke:none;" d="M321.667 337.333C321.222 337.778 322.278 337.722 322.333 337.667C322.778 337.222 321.722 337.278 321.667 337.333M332 337L333 338L332 337M570 338L571 339L570 338z"/>
<path style="fill:#ffffff; stroke:none;" d="M561 363C567.503 362.999 573.614 362.203 580 361C580 355.187 582.139 341.215 574.806 338.662C571.606 337.548 569.913 340.571 568.865 343.019C566.153 349.354 561.894 356.165 561 363z"/>
<path style="fill:#d77f62; stroke:none;" d="M576 338L577 339L576 338M824 338L825 339L824 338M827 338L828 339L827 338z"/>
<path style="fill:#cd3301; stroke:none;" d="M126 344C123.777 351.774 119.284 358.015 115.453 365C110.463 374.096 106.45 383.644 102 393L244 392L244 340C230.705 340 217.282 339.458 204 340.039C189.311 340.683 174.654 342.906 160 343.91C148.765 344.681 137.262 344 126 344z"/>
<path style="fill:#d77f62; stroke:none;" d="M577 340L578 341L577 340M823 340L824 341L823 340M313 341L314 342L313 341M341 341L342 342L341 341M826 341L827 342L826 341M310 342L311 343L310 342M578 342L579 343L578 342M822 342L823 343L822 342M309 343L310 344L309 343M579 344L580 345L579 344M347 345L348 346L347 345M567.333 346.667C567.278 346.722 567.222 347.778 567.667 347.333C567.722 347.278 567.778 346.222 567.333 346.667M824 346L825 347L824 346M306 347L307 348L306 347M566 348L567 349L566 348M823 349L824 350L823 349M565 350L566 351L565 350M818 350L819 351L818 350M303.333 352.667C303.278 352.722 303.222 353.778 303.667 353.333C303.722 353.278 303.778 352.222 303.333 352.667M821 353L822 354L821 353M563.333 354.667C563.278 354.722 563.222 355.778 563.667 355.333C563.722 355.278 563.778 354.222 563.333 354.667z"/>
<path style="fill:#cd3301; stroke:none;" d="M613 376L619 376C619.277 377.742 619.465 379.392 620.318 380.981C626.234 391.995 640.986 382.89 646.909 377.001C648.92 375.001 650.512 373.328 653 372C653.008 374.618 652.807 377.435 653.653 379.956C655.443 385.294 660.521 385.387 665 383.351C671.437 380.425 685.603 368.228 678.682 359.894C676.499 357.264 671.107 357.74 668 357C668.986 355.521 669 355.797 669 354C655.862 359.09 649.82 374.738 636.999 380.583C630.925 383.352 623.367 379.245 627.029 372.015C631 364.172 641.273 362.987 644 354C633.493 357.092 619.362 367.161 613 376z"/>
<path style="fill:#d77f62; stroke:none;" d="M820 354L821 355L820 354M301 355L302 356L301 355M300.333 358.667C300.278 358.722 300.222 359.778 300.667 359.333C300.722 359.278 300.778 358.222 300.333 358.667M354.333 358.667C354.278 358.722 354.222 359.778 354.667 359.333C354.722 359.278 354.778 358.222 354.333 358.667M561 358L562 359L561 358M560.333 360.667C560.278 360.722 560.222 361.778 560.667 361.333C560.722 361.278 560.778 360.222 560.333 360.667M577 361C578.248 361.685 578.548 361.749 580 362C578.752 361.315 578.451 361.251 577 361M669 364L672 363C670.234 362.599 670.443 362.711 669 364M564 363C565.248 363.685 565.549 363.749 567 364C565.752 363.315 565.452 363.251 564 363z"/>
<path style="fill:#ffffff; stroke:none;" d="M661 380C666.412 379.442 670.785 377.047 673.311 371.996C674.368 369.882 675.416 366.56 673.382 364.647C671.107 362.508 667.964 364.619 666.044 366.14C661.286 369.908 660.177 374.208 661 380z"/>
<path style="fill:#d77f62; stroke:none;" d="M667 364L668 365L667 364M674 364L675 365L674 364M960 365L961 366L960 365M665 366L666 367L665 366M663 368L664 369L663 368M354.333 369.667C354.278 369.722 354.222 370.778 354.667 370.333C354.722 370.278 354.778 369.222 354.333 369.667M674 369L674 372C674.696 370.446 674.696 370.554 674 369M300 370L300 373C300.696 371.446 300.696 371.554 300 370M672 373L673 374L672 373M809 373L810 374L809 373M703 374L704 375L703 374M671 375L672 376L671 375M660 377L661 378L660 377M303.333 378.667C303.278 378.722 303.222 379.778 303.667 379.333C303.722 379.278 303.778 378.222 303.333 378.667M351 378L352 379L351 378M667 378L668 379L667 378M753 378L754 379L753 378M665 379L666 380L665 379M349 380L350 381L349 380M462 381L462 384C462.696 382.446 462.696 382.554 462 381M305 382L306 383L305 382M307 384L308 385L307 384M347 384L348 385L347 384M12 386L13 387L12 386M309 386L310 387L309 386M345 386L346 387L345 386M310 387L311 388L310 387M313 388L314 389L313 388M18 389L19 390L18 389M22 390L23 391L22 390M316 390L317 391L316 390M338 390L339 391L338 390M31 392L32 393L31 392M110 392C115.222 394.191 122.368 393 128 393C122.778 390.809 115.632 392 110 392M38 393L39 394L38 393M268 414L269 415L268 414M214.333 428.667C214.278 428.722 214.222 429.778 214.667 429.333C214.722 429.278 214.778 428.222 214.333 428.667z"/>
<path style="fill:#cd3301; stroke:none;" d="M219 478L220 479L219 478z"/>
</svg>
